<svg width="23" height="22" viewBox="0 0 23 22" fill="none" xmlns="http://www.w3.org/2000/svg">
<path fill-rule="evenodd" clip-rule="evenodd" d="M6.45833 16.5C6.09366 16.5 5.74392 16.6449 5.48606 16.9027C5.2282 17.1606 5.08333 17.5103 5.08333 17.875C5.08333 18.3813 4.67293 18.7917 4.16667 18.7917C3.66041 18.7917 3.25 18.3813 3.25 17.875C3.25 17.0241 3.58802 16.2081 4.1897 15.6064C4.79138 15.0047 5.60743 14.6667 6.45833 14.6667H18.8333C19.3396 14.6667 19.75 15.0771 19.75 15.5834C19.75 16.0896 19.3396 16.5 18.8333 16.5H6.45833Z" fill="#161719"/>
<path fill-rule="evenodd" clip-rule="evenodd" d="M6.45833 2.74999C6.09366 2.74999 5.74392 2.89486 5.48606 3.15272C5.2282 3.41058 5.08333 3.76032 5.08333 4.12499V17.875C5.08333 18.2397 5.2282 18.5894 5.48606 18.8473C5.74392 19.1051 6.09366 19.25 6.45833 19.25H17.9167V2.74999H6.45833ZM6.45833 0.916656H18.8333C19.3396 0.916656 19.75 1.32706 19.75 1.83332V20.1667C19.75 20.6729 19.3396 21.0833 18.8333 21.0833H6.45833C5.60743 21.0833 4.79138 20.7453 4.1897 20.1436C3.58802 19.5419 3.25 18.7259 3.25 17.875V4.12499C3.25 3.27409 3.58802 2.45803 4.1897 1.85636C4.79138 1.25468 5.60743 0.916656 6.45833 0.916656Z" fill="#161719"/>
</svg>
