<svg width="23" height="22" viewBox="0 0 23 22" fill="none" xmlns="http://www.w3.org/2000/svg">
<path fill-rule="evenodd" clip-rule="evenodd" d="M10.9373 1.10975C11.2683 0.852292 11.7318 0.852292 12.0628 1.10975L20.3128 7.52642C20.5361 7.70008 20.6667 7.96711 20.6667 8.24999V18.3333C20.6667 19.0627 20.377 19.7621 19.8613 20.2779C19.3455 20.7936 18.6461 21.0833 17.9167 21.0833H5.08337C4.35403 21.0833 3.65456 20.7936 3.13883 20.2779C2.62311 19.7621 2.33337 19.0627 2.33337 18.3333V8.24999C2.33337 7.96711 2.46397 7.70008 2.68726 7.52642L10.9373 1.10975ZM4.16671 8.69832V18.3333C4.16671 18.5764 4.26328 18.8096 4.43519 18.9815C4.6071 19.1534 4.84026 19.25 5.08337 19.25H17.9167C18.1598 19.25 18.393 19.1534 18.5649 18.9815C18.7368 18.8096 18.8334 18.5764 18.8334 18.3333V8.69832L11.5 2.99461L4.16671 8.69832Z" fill="#161719"/>
<path fill-rule="evenodd" clip-rule="evenodd" d="M13.0415 11.8462C15.4103 10.5723 18.1768 10.6236 19.9886 11.0262L19.5114 13.1738C18.0232 12.8431 15.8397 12.8393 14.0835 13.7838C12.4318 14.6721 10.95 16.5094 10.95 20.35H8.75C8.75 15.8306 10.5682 13.1763 13.0415 11.8462Z" fill="#FF8181"/>
</svg>
