<svg width="22" height="22" viewBox="0 0 22 22" fill="none" xmlns="http://www.w3.org/2000/svg">
<path fill-rule="evenodd" clip-rule="evenodd" d="M3.66663 3.66668C3.42351 3.66668 3.19035 3.76325 3.01844 3.93516C2.84654 4.10707 2.74996 4.34023 2.74996 4.58334V17.4167C2.74996 17.6598 2.84654 17.893 3.01844 18.0649C3.19035 18.2368 3.42351 18.3333 3.66663 18.3333H18.3333C18.5764 18.3333 18.8096 18.2368 18.9815 18.0649C19.1534 17.893 19.25 17.6598 19.25 17.4167V7.33334C19.25 7.09023 19.1534 6.85707 18.9815 6.68516C18.8096 6.51325 18.5764 6.41668 18.3333 6.41668H10.0833C9.7768 6.41668 9.49059 6.2635 9.32058 6.00849L7.75937 3.66668H3.66663ZM1.72208 2.6388C2.23781 2.12307 2.93728 1.83334 3.66663 1.83334H8.24996C8.55645 1.83334 8.84266 1.98652 9.01267 2.24154L10.5739 4.58334H18.3333C19.0626 4.58334 19.7621 4.87308 20.2778 5.3888C20.7936 5.90452 21.0833 6.604 21.0833 7.33334V17.4167C21.0833 18.146 20.7936 18.8455 20.2778 19.3612C19.7621 19.8769 19.0626 20.1667 18.3333 20.1667H3.66663C2.93728 20.1667 2.23781 19.8769 1.72208 19.3612C1.20636 18.8455 0.916626 18.146 0.916626 17.4167V4.58334C0.916626 3.854 1.20636 3.15452 1.72208 2.6388Z" fill="#161719"/>
</svg>
