<svg width="20" height="20" viewBox="0 0 20 20" fill="none" xmlns="http://www.w3.org/2000/svg">
<path fill-rule="evenodd" clip-rule="evenodd" d="M5.87523 2.54189C6.9692 1.44792 8.45293 0.833344 10 0.833344C11.5471 0.833344 13.0309 1.44792 14.1248 2.54189C15.2188 3.63585 15.8334 5.11958 15.8334 6.66668C15.8334 9.46056 16.4309 11.1955 16.9816 12.2051C17.2581 12.712 17.5273 13.0446 17.7144 13.242C17.8081 13.3409 17.8817 13.4065 17.9261 13.4435C17.9483 13.462 17.9632 13.4733 17.9696 13.4781C17.9706 13.4788 17.9714 13.4794 17.9719 13.4798C18.2707 13.6851 18.4029 14.0604 18.2976 14.4082C18.1912 14.7596 17.8672 15 17.5 15H2.50002C2.1328 15 1.80886 14.7596 1.70245 14.4082C1.59716 14.0604 1.72936 13.6851 2.0281 13.4798C2.02868 13.4794 2.02948 13.4788 2.03048 13.4781C2.0369 13.4733 2.05177 13.462 2.07396 13.4435C2.11831 13.4065 2.19196 13.3409 2.28569 13.242C2.47271 13.0446 2.74195 12.712 3.01844 12.2051C3.56913 11.1955 4.16669 9.46056 4.16669 6.66668C4.16669 5.11958 4.78127 3.63585 5.87523 2.54189ZM2.03652 13.4741C2.03659 13.4741 2.03665 13.474 2.03672 13.474C2.03672 13.474 2.03671 13.474 2.03671 13.474L2.03652 13.4741ZM4.29113 13.3333H15.7089C15.6455 13.2294 15.5819 13.1195 15.5184 13.0032C14.8191 11.7212 14.1667 9.70613 14.1667 6.66668C14.1667 5.56161 13.7277 4.5018 12.9463 3.7204C12.1649 2.939 11.1051 2.50001 10 2.50001C8.89496 2.50001 7.83515 2.939 7.05375 3.7204C6.27234 4.5018 5.83336 5.56161 5.83336 6.66668C5.83336 9.70613 5.18091 11.7212 4.4816 13.0032C4.41819 13.1195 4.35453 13.2294 4.29113 13.3333Z" fill="#FCFCFF"/>
<path fill-rule="evenodd" clip-rule="evenodd" d="M8.14024 16.7792C8.53835 16.5482 9.04828 16.6838 9.27922 17.0819C9.35247 17.2081 9.45762 17.313 9.58412 17.3858C9.71063 17.4587 9.85406 17.4971 10.0001 17.4971C10.146 17.4971 10.2895 17.4587 10.416 17.3858C10.5425 17.313 10.6476 17.2081 10.7209 17.0819C10.9518 16.6838 11.4618 16.5482 11.8599 16.7792C12.258 17.0101 12.3935 17.52 12.1626 17.9181C11.9428 18.297 11.6274 18.6115 11.2478 18.8301C10.8683 19.0487 10.438 19.1637 10.0001 19.1637C9.56208 19.1637 9.13179 19.0487 8.75227 18.8301C8.37275 18.6115 8.05731 18.297 7.83755 17.9181C7.60662 17.52 7.74214 17.0101 8.14024 16.7792Z" fill="#FCFCFF"/>
</svg>
