<svg width="23" height="22" viewBox="0 0 23 22" fill="none" xmlns="http://www.w3.org/2000/svg">
<path fill-rule="evenodd" clip-rule="evenodd" d="M4.59243 14.1758C5.45197 13.3162 6.61776 12.8333 7.83333 12.8333H15.1667C16.3822 12.8333 17.548 13.3162 18.4076 14.1758C19.2671 15.0353 19.75 16.2011 19.75 17.4167V19.25C19.75 19.7563 19.3396 20.1667 18.8333 20.1667C18.3271 20.1667 17.9167 19.7563 17.9167 19.25V17.4167C17.9167 16.6873 17.6269 15.9879 17.1112 15.4721C16.5955 14.9564 15.896 14.6667 15.1667 14.6667H7.83333C7.10399 14.6667 6.40452 14.9564 5.88879 15.4721C5.37306 15.9879 5.08333 16.6873 5.08333 17.4167V19.25C5.08333 19.7563 4.67293 20.1667 4.16667 20.1667C3.66041 20.1667 3.25 19.7563 3.25 19.25V17.4167C3.25 16.2011 3.73289 15.0353 4.59243 14.1758Z" fill="#161719"/>
<path fill-rule="evenodd" clip-rule="evenodd" d="M3.25 19.14C3.25 18.5325 3.74249 18.04 4.35 18.04H18.65C19.2575 18.04 19.75 18.5325 19.75 19.14C19.75 19.7475 19.2575 20.24 18.65 20.24H4.35C3.74249 20.24 3.25 19.7475 3.25 19.14Z" fill="#161719"/>
<path fill-rule="evenodd" clip-rule="evenodd" d="M11.5 3.66668C9.98119 3.66668 8.74997 4.89789 8.74997 6.41668C8.74997 7.93546 9.98119 9.16668 11.5 9.16668C13.0188 9.16668 14.25 7.93546 14.25 6.41668C14.25 4.89789 13.0188 3.66668 11.5 3.66668ZM6.91664 6.41668C6.91664 3.88537 8.96867 1.83334 11.5 1.83334C14.0313 1.83334 16.0833 3.88537 16.0833 6.41668C16.0833 8.94798 14.0313 11 11.5 11C8.96867 11 6.91664 8.94798 6.91664 6.41668Z" fill="#161719"/>
</svg>
