<svg width="22" height="22" viewBox="0 0 22 22" fill="none" xmlns="http://www.w3.org/2000/svg">
<path fill-rule="evenodd" clip-rule="evenodd" d="M3.55546 1.72211C4.07118 1.20639 4.77065 0.916656 5.5 0.916656H12.8333C13.0764 0.916656 13.3096 1.01323 13.4815 1.18514L18.9815 6.68514C19.1534 6.85705 19.25 7.09021 19.25 7.33332V18.3333C19.25 19.0627 18.9603 19.7621 18.4445 20.2779C17.9288 20.7936 17.2293 21.0833 16.5 21.0833H5.5C4.77065 21.0833 4.07118 20.7936 3.55546 20.2779C3.03973 19.7621 2.75 19.0627 2.75 18.3333V3.66666C2.75 2.93731 3.03973 2.23784 3.55546 1.72211ZM5.5 2.74999C5.25688 2.74999 5.02373 2.84657 4.85182 3.01848C4.67991 3.19038 4.58333 3.42354 4.58333 3.66666V18.3333C4.58333 18.5764 4.67991 18.8096 4.85182 18.9815C5.02373 19.1534 5.25689 19.25 5.5 19.25H16.5C16.7431 19.25 16.9763 19.1534 17.1482 18.9815C17.3201 18.8096 17.4167 18.5764 17.4167 18.3333V7.71302L12.4536 2.74999H5.5Z" fill="#161719"/>
<path fill-rule="evenodd" clip-rule="evenodd" d="M12.8333 0.916656C13.3396 0.916656 13.75 1.32706 13.75 1.83332V6.41666H18.3333C18.8396 6.41666 19.25 6.82706 19.25 7.33332C19.25 7.83958 18.8396 8.24999 18.3333 8.24999H12.8333C12.327 8.24999 11.9166 7.83958 11.9166 7.33332V1.83332C11.9166 1.32706 12.327 0.916656 12.8333 0.916656Z" fill="#161719"/>
<path fill-rule="evenodd" clip-rule="evenodd" d="M6.41663 11.9167C6.41663 11.4104 6.82703 11 7.33329 11H14.6666C15.1729 11 15.5833 11.4104 15.5833 11.9167C15.5833 12.4229 15.1729 12.8333 14.6666 12.8333H7.33329C6.82703 12.8333 6.41663 12.4229 6.41663 11.9167Z" fill="#161719"/>
<path fill-rule="evenodd" clip-rule="evenodd" d="M6.41663 15.5834C6.41663 15.0771 6.82703 14.6667 7.33329 14.6667H14.6666C15.1729 14.6667 15.5833 15.0771 15.5833 15.5834C15.5833 16.0896 15.1729 16.5 14.6666 16.5H7.33329C6.82703 16.5 6.41663 16.0896 6.41663 15.5834Z" fill="#161719"/>
<path fill-rule="evenodd" clip-rule="evenodd" d="M6.41663 8.25001C6.41663 7.74375 6.82703 7.33334 7.33329 7.33334H9.16663C9.67289 7.33334 10.0833 7.74375 10.0833 8.25001C10.0833 8.75627 9.67289 9.16668 9.16663 9.16668H7.33329C6.82703 9.16668 6.41663 8.75627 6.41663 8.25001Z" fill="#161719"/>
</svg>
