<svg width="11" height="10" viewBox="0 0 11 10" fill="none" xmlns="http://www.w3.org/2000/svg">
<path d="M5.05163 0.991659C5.23504 0.620075 5.76492 0.620075 5.94833 0.991659L7.05751 3.23872C7.13028 3.38615 7.27087 3.48838 7.43355 3.51215L9.91475 3.87482C10.3247 3.93474 10.4881 4.43866 10.1913 4.72774L8.39671 6.47568C8.27877 6.59055 8.22494 6.75612 8.25277 6.91838L8.67619 9.38716C8.74625 9.79564 8.31748 10.1071 7.95066 9.91422L5.73271 8.74781C5.58701 8.6712 5.41295 8.6712 5.26725 8.74781L3.0493 9.91422C2.68248 10.1071 2.25371 9.79564 2.32377 9.38716L2.74719 6.91838C2.77502 6.75612 2.72119 6.59055 2.60325 6.47568L0.808652 4.72774C0.511855 4.43866 0.675247 3.93474 1.0852 3.87482L3.56641 3.51215C3.72909 3.48838 3.86968 3.38615 3.94245 3.23872L5.05163 0.991659Z" fill="#FFC960"/>
</svg>
